<svg width="748" height="749" viewBox="0 0 748 749" fill="none" xmlns="http://www.w3.org/2000/svg">
<g clip-path="url(#clip0)">
<path d="M234.531 674.508L6.13428 243.005L7.09766 242.565L537.21 0L537.644 0.859871L747.028 416.051L746.135 416.501L234.531 674.508ZM8.89307 243.942L235.381 671.839L744.341 415.166L536.291 2.62012L8.89307 243.942Z" fill="#F0F0F0"/>
<path d="M5.08081 344.872C5.08064 344.48 5.12127 344.088 5.20204 343.704L6.13605 288.37L7.51184 288.248L7.57111 288.25L121.587 292.841C122.752 292.893 123.895 293.173 124.952 293.667C126.008 294.16 126.957 294.857 127.744 295.717C128.532 296.577 129.142 297.584 129.539 298.68C129.937 299.776 130.116 300.939 130.064 302.104L128.087 346.426C128.035 347.591 127.754 348.733 127.261 349.789C126.767 350.845 126.071 351.794 125.211 352.58C124.35 353.367 123.344 353.977 122.248 354.374C121.152 354.772 119.989 354.95 118.825 354.898L10.5284 350.537C9.06496 350.478 7.68113 349.855 6.66599 348.8C5.65084 347.744 5.08292 346.337 5.08087 344.872H5.08081Z" fill="#FFAC1D"/>
<path d="M1.52588e-05 340.842C1.52588e-05 340.7 0.00361295 340.559 0.00990295 340.417L1.9469 296.969C2.05983 294.502 3.14653 292.181 4.96861 290.514C6.7907 288.848 9.19939 287.972 11.6663 288.079L115.771 292.72C118.121 292.828 120.333 293.864 121.922 295.6C123.51 297.337 124.344 299.632 124.242 301.983L122.266 346.305C122.159 348.656 121.123 350.868 119.386 352.456C117.65 354.044 115.354 354.879 113.003 354.777L8.89861 350.136C6.50461 350.028 4.24398 349.003 2.5867 347.272C0.929416 345.541 0.00297757 343.238 0 340.842L1.52588e-05 340.842Z" fill="black"/>
<path d="M97.0505 327.733C100.555 327.733 103.396 324.892 103.396 321.388C103.396 317.883 100.555 315.042 97.0505 315.042C93.5461 315.042 90.7053 317.883 90.7053 321.388C90.7053 324.892 93.5461 327.733 97.0505 327.733Z" fill="#FFAC1D"/>
<path d="M477.59 652.019L466.968 504.646L468.988 455.458L427.587 464.671L442.837 657.776C441.11 661.336 440.394 665.303 440.769 669.242C441.144 673.181 442.595 676.941 444.964 680.111C447.332 683.281 450.526 685.739 454.197 687.215C457.868 688.692 461.874 689.131 465.778 688.485C469.681 687.838 473.332 686.13 476.331 683.549C479.329 680.967 481.56 677.61 482.779 673.846C483.999 670.082 484.16 666.054 483.244 662.205C482.329 658.355 480.373 654.832 477.59 652.019V652.019Z" fill="#9E616A"/>
<path d="M108.694 366.162L69.0959 340.424C67.8949 336.481 65.5895 332.964 62.4525 330.29C59.3154 327.615 55.478 325.896 51.3942 325.334C47.3104 324.772 43.1512 325.392 39.4087 327.12C35.6662 328.849 32.497 331.613 30.2762 335.085C28.0553 338.558 26.8757 342.594 26.877 346.717C26.8782 350.839 28.0602 354.875 30.2831 358.346C32.506 361.818 35.6769 364.58 39.4204 366.305C43.1639 368.031 47.3234 368.649 51.4069 368.085C51.6947 368.045 51.9702 367.975 52.2533 367.924L94.7018 398.799L108.694 366.162Z" fill="#9E616A"/>
<path d="M162.202 454.824L68.0764 385.277L102.202 358.824L143.653 390.21L296.529 328.198C298.779 327.816 301.083 327.891 303.304 328.419C305.525 328.947 307.616 329.918 309.453 331.272C311.267 332.599 312.795 334.278 313.946 336.208C315.096 338.139 315.846 340.282 316.149 342.509L316.223 343.034L288.202 386.824L162.202 454.824Z" fill="#FFAC1D"/>
<path d="M438.49 606.546L411.971 422.211L412.015 422.041L439.25 314.979L441.801 314.682C449.16 313.871 456.556 315.833 462.544 320.187C468.532 324.54 472.68 330.97 474.178 338.22L476.196 612.202L438.49 606.546Z" fill="#FFAC1D"/>
<path d="M446.857 286.071H309.023V223.797C309.023 214.746 310.805 205.785 314.269 197.423C317.732 189.062 322.809 181.464 329.208 175.065C335.608 168.665 343.205 163.589 351.567 160.125C359.928 156.662 368.89 154.879 377.94 154.879C386.99 154.879 395.952 156.662 404.314 160.125C412.675 163.589 420.272 168.665 426.672 175.065C433.072 181.464 438.148 189.062 441.611 197.423C445.075 205.785 446.857 214.746 446.857 223.797V286.071Z" fill="#2F2E41"/>
<path d="M416.184 271.443C438.182 249.444 438.182 213.777 416.184 191.779C394.185 169.78 358.519 169.78 336.52 191.779C314.521 213.777 314.521 249.444 336.52 271.443C358.519 293.441 394.185 293.441 416.184 271.443Z" fill="#9E616A"/>
<path d="M403.547 183.82C424.257 183.82 441.045 167.031 441.045 146.322C441.045 125.612 424.257 108.824 403.547 108.824C382.838 108.824 366.049 125.612 366.049 146.322C366.049 167.031 382.838 183.82 403.547 183.82Z" fill="#2F2E41"/>
<path d="M439.269 234.591H292.666V233.761C292.666 195.759 325.548 164.843 365.967 164.843C406.386 164.843 439.269 195.759 439.269 233.761V234.591Z" fill="#2F2E41"/>
<path d="M462.812 321.764L462.792 321.584C462.67 319.952 462.221 318.362 461.474 316.907C460.726 315.452 459.695 314.161 458.44 313.111C457.185 312.062 455.732 311.274 454.168 310.795C452.604 310.316 450.959 310.156 449.332 310.324L302.252 325.364C299.905 325.605 297.677 326.518 295.836 327.994C293.995 329.469 292.618 331.445 291.872 333.684L281.042 366.144C278.512 368.944 244.932 407.464 264.922 460.124L272.412 503.164L258.732 528.744C230.652 558.854 214.302 629.304 210.152 733.944C243.092 743.846 277.306 748.859 311.702 748.824C311.982 748.824 312.262 748.824 312.542 748.814L321.812 682.074L341.792 747.544C374.499 744.8 406.656 737.458 437.312 725.734L413.842 563.584L409.142 502.484L462.762 321.924L462.812 321.764Z" fill="#2F2E41"/>
<path d="M504.02 157.15C504.02 155.11 504.74 153.37 506.18 151.93C507.62 150.43 509.3 149.68 511.22 149.68C513.14 149.68 514.58 150.22 515.54 151.3C516.56 152.32 517.07 153.85 517.07 155.89C517.07 157.93 516.38 159.73 515 161.29C513.62 162.79 511.97 163.54 510.05 163.54C508.19 163.54 506.72 162.97 505.64 161.83C504.56 160.69 504.02 159.13 504.02 157.15ZM516.8 119.98C516.8 113.68 510.2 110.38 497 110.08L501.5 100C510.38 100.78 517.16 102.67 521.84 105.67C526.52 108.67 528.86 112.66 528.86 117.64C528.86 124.54 523.19 132.25 511.85 140.77L504.92 134.56C512.84 129.46 516.8 124.6 516.8 119.98Z" fill="#CC0000"/>
<path d="M227.882 220.912C227.9 222.952 227.195 224.698 225.768 226.15C224.341 227.663 222.667 228.428 220.747 228.444C218.827 228.461 217.383 227.934 216.413 226.862C215.385 225.851 214.861 224.326 214.843 222.286C214.826 220.246 215.5 218.44 216.866 216.868C218.233 215.356 219.876 214.591 221.796 214.575C223.656 214.558 225.131 215.116 226.221 216.246C227.311 217.377 227.865 218.932 227.882 220.912ZM215.427 258.192C215.482 264.492 222.11 267.734 235.312 267.919L230.901 278.038C222.014 277.335 215.218 275.504 210.512 272.545C205.806 269.586 203.431 265.617 203.388 260.637C203.327 253.737 208.93 245.978 220.195 237.36L227.179 243.509C219.304 248.678 215.386 253.572 215.427 258.192Z" fill="#F10303"/>
</g>
<defs>
<clipPath id="clip0">
<rect width="747.028" height="748.824" fill="white"/>
</clipPath>
</defs>
</svg>
